<?xml version="1.0" encoding="utf-8"?>
<svg width="1024" height="1024" viewBox="0 0 1024 1024" xmlns="http://www.w3.org/2000/svg">
  <defs>
    <linearGradient id="greenWave1" x1="0%" y1="0%" x2="100%" y2="100%">
      <stop offset="0" stop-color="#10B981"/>
      <stop offset="1" stop-color="#34D399"/>
    </linearGradient>
    <linearGradient id="greenWave2" x1="30%" y1="0%" x2="70%" y2="100%">
      <stop offset="0" stop-color="#34D399"/>
      <stop offset="1" stop-color="#10B981"/>
    </linearGradient>
    <linearGradient id="blueWave1" x1="0%" y1="0%" x2="100%" y2="100%">
      <stop offset="0" stop-color="#3B82F6"/>
      <stop offset="1" stop-color="#06B6D4"/>
    </linearGradient>
    <linearGradient id="blueWave2" x1="20%" y1="0%" x2="80%" y2="100%">
      <stop offset="0" stop-color="#06B6D4"/>
      <stop offset="1" stop-color="#3B82F6"/>
    </linearGradient>
    <linearGradient id="purpleWave1" x1="0%" y1="0%" x2="100%" y2="100%">
      <stop offset="0" stop-color="#8B5CF6"/>
      <stop offset="0.5" stop-color="#A78BFA"/>
      <stop offset="1" stop-color="#EC4899"/>
    </linearGradient>
    <linearGradient id="purpleWave2" x1="40%" y1="0%" x2="60%" y2="100%">
      <stop offset="0" stop-color="#A78BFA"/>
      <stop offset="1" stop-color="#8B5CF6"/>
    </linearGradient>
  </defs>
  <g id="waves-green" opacity="0.8">
    <path d="M0,600 Q200,400 400,500 T800,450 Q900,400 1024,420 L1024,1024 L0,1024 Z" fill="url(#greenWave1)"/>
    <path d="M0,700 Q300,550 600,600 T1024,580 L1024,1024 L0,1024 Z" fill="url(#greenWave2)"/>
  </g>
  <g id="waves-blue" opacity="0.85">
    <path d="M0,500 Q250,300 500,400 T850,350 Q950,320 1024,340 L1024,1024 L0,1024 Z" fill="url(#blueWave1)"/>
    <path d="M0,650 Q400,500 700,550 T1024,530 L1024,1024 L0,1024 Z" fill="url(#blueWave2)"/>
  </g>
  <g id="waves-purple" opacity="0.9">
    <path d="M0,400 Q300,200 600,300 T1000,250 Q1050,230 1024,240 L1024,1024 L0,1024 Z" fill="url(#purpleWave1)"/>
    <path d="M0,550 Q350,400 650,450 T1024,430 L1024,1024 L0,1024 Z" fill="url(#purpleWave2)"/>
  </g>
</svg>